C:\Users\r0593348\3dpredictsim\Results\Batchsim_tmt_linear_v2\Pog_s1_tmt_bCst_d00_k500_ig24_pas_GRF.mot
nRows=20
nColumns=19

name C:\Users\r0593348\3dpredictsim\Results\Batchsim_tmt_linear_v2\Pog_s1_tmt_bCst_d00_k500_ig24_pas_GRF.mot
datacolumns 19
datarows 20
range 0.0000000000 0.2114667270
endheader
time 	ground_force_vx	ground_force_vy	ground_force_vz	ground_force_px	ground_force_py	ground_force_pz	1_ground_force_vx	1_ground_force_vy	1_ground_force_vz	1_ground_force_px	1_ground_force_py	1_ground_force_pz	ground_torque_x	ground_torque_y	ground_torque_z	1_ground_torque_x	1_ground_torque_y	1_ground_torque_z
        0.0000000000	      -50.8572404891	       37.5910975297	       11.4168381249	        0.1685117370	        0.0000000000	        0.0475861269	      109.2418552151	      440.3440018039	        5.0331339353	       -0.3535531998	        0.0000000000	       -0.0439465883	        0.0000000000	        0.0000000000	        0.0000000000	        0.0000000000	        0.0000000000	        0.0000000000	
        0.0111298277	     -102.1338120434	       92.4592577983	       29.6862780160	        0.1780569463	        0.0000000000	        0.0454645399	       70.0611327552	      327.6835230838	       -1.4946944723	       -0.3354598232	        0.0000000000	       -0.0403601544	        0.0000000000	        0.0000000000	        0.0000000000	        0.0000000000	        0.0000000000	        0.0000000000	
        0.0222596555	     -124.0886547545	      210.8734136544	       49.9972199820	        0.1841717029	        0.0000000000	        0.0441942573	       30.1350423867	      216.7296936810	      -10.3832822320	       -0.3053573209	        0.0000000000	       -0.0334676066	        0.0000000000	        0.0000000000	        0.0000000000	        0.0000000000	        0.0000000000	        0.0000000000	
        0.0333894832	      -83.0734964252	      416.8248436293	        9.5843549760	        0.1893303559	        0.0000000000	        0.0433879239	        5.9419251835	      149.8610823251	      -14.1033344970	       -0.2775812855	        0.0000000000	       -0.0247808618	        0.0000000000	        0.0000000000	        0.0000000000	        0.0000000000	        0.0000000000	        0.0000000000	
        0.0445193109	      -94.4934128018	      691.2340730049	      -10.9626284791	        0.1991050366	        0.0000000000	        0.0455638608	        0.7038972692	      121.0439914687	      -11.3431792030	       -0.2782587415	        0.0000000000	       -0.0249968947	        0.0000000000	        0.0000000000	        0.0000000000	        0.0000000000	        0.0000000000	        0.0000000000	
        0.0556491387	     -137.4824037469	      924.6063705512	      -20.4998697076	        0.2075605275	        0.0000000000	        0.0478144066	       -2.5347104162	       80.5822761422	       -9.7620492886	       -0.2777941244	        0.0000000000	       -0.0250205622	        0.0000000000	        0.0000000000	        0.0000000000	        0.0000000000	        0.0000000000	        0.0000000000	
        0.0667789664	     -153.2549440947	     1009.5553128073	      -22.6554357070	        0.2130425651	        0.0000000000	        0.0491470475	       -7.6783334532	       33.8402777881	       -6.3324000575	       -0.2780278763	        0.0000000000	       -0.0251264249	        0.0000000000	        0.0000000000	        0.0000000000	        0.0000000000	        0.0000000000	        0.0000000000	
        0.0779087941	     -145.7567616433	      986.3442395276	      -23.1872340209	        0.2170744864	        0.0000000000	        0.0499691659	        0.1227097451	       -0.1250485835	        0.0102193383	        0.0000000000	        0.0000000000	        0.0000000000	        0.0000000000	        0.0000000000	        0.0000000000	        0.0000000000	        0.0000000000	        0.0000000000	
        0.0890386219	     -127.5430928793	      918.8545868693	      -22.1093552658	        0.2208583415	        0.0000000000	        0.0505547415	        0.0001101394	       -0.0000920705	       -0.0000023836	        0.0000000000	        0.0000000000	        0.0000000000	        0.0000000000	        0.0000000000	        0.0000000000	        0.0000000000	        0.0000000000	        0.0000000000	
        0.1001684496	     -110.7569272379	      851.7648175206	      -20.2728188680	        0.2251188925	        0.0000000000	        0.0511747928	        0.0000636153	       -0.0000465034	       -0.0000026291	        0.0000000000	        0.0000000000	        0.0000000000	        0.0000000000	        0.0000000000	        0.0000000000	        0.0000000000	        0.0000000000	        0.0000000000	
        0.1112982773	     -100.7133106016	      806.1565293774	      -19.3932278568	        0.2307239047	        0.0000000000	        0.0515606478	        0.0007782152	       -0.0005095792	       -0.0000392886	        0.0000000000	        0.0000000000	        0.0000000000	        0.0000000000	        0.0000000000	        0.0000000000	        0.0000000000	        0.0000000000	        0.0000000000	
        0.1224281051	      -90.8091617877	      765.2023900075	      -18.3726123476	        0.2366240501	        0.0000000000	        0.0516133534	        0.0066115528	       -0.0039620514	       -0.0003604542	        0.0000000000	        0.0000000000	        0.0000000000	        0.0000000000	        0.0000000000	        0.0000000000	        0.0000000000	        0.0000000000	        0.0000000000	
        0.1335579328	      -80.8620247299	      724.6431782031	      -18.0580385849	        0.2422832965	        0.0000000000	        0.0515737552	       -0.0504250254	        0.0281173737	        0.0028613486	        0.0000000000	        0.0000000000	        0.0000000000	        0.0000000000	        0.0000000000	        0.0000000000	        0.0000000000	        0.0000000000	        0.0000000000	
        0.1446877605	      -72.2171035118	      690.1361610649	      -17.5669144119	        0.2477292540	        0.0000000000	        0.0513939524	       -0.0336375886	        0.0176571090	        0.0019582461	        0.0000000000	        0.0000000000	        0.0000000000	        0.0000000000	        0.0000000000	        0.0000000000	        0.0000000000	        0.0000000000	        0.0000000000	
        0.1558175883	      -63.3444448207	      662.9521009173	      -17.3705131581	        0.2529581283	        0.0000000000	        0.0512008935	       -0.0228870103	        0.0114040484	        0.0013547655	        0.0000000000	        0.0000000000	        0.0000000000	        0.0000000000	        0.0000000000	        0.0000000000	        0.0000000000	        0.0000000000	        0.0000000000	
        0.1669474160	      -56.3693751971	      642.1309270022	      -17.8011664789	        0.2580114070	        0.0000000000	        0.0509956711	       -0.0195661176	        0.0093159131	        0.0011709750	        0.0000000000	        0.0000000000	        0.0000000000	        0.0000000000	        0.0000000000	        0.0000000000	        0.0000000000	        0.0000000000	        0.0000000000	
        0.1780772438	      -50.8603273957	      626.9144614875	      -18.4307029874	        0.2628038568	        0.0000000000	        0.0507672001	       -0.0216717010	        0.0099157869	        0.0013128892	        0.0000000000	        0.0000000000	        0.0000000000	        0.0000000000	        0.0000000000	        0.0000000000	        0.0000000000	        0.0000000000	        0.0000000000	
        0.1892070715	      -46.1802017757	      615.8964297780	      -19.0602571063	        0.2673226470	        0.0000000000	        0.0505241825	       -0.0302299431	        0.0133592287	        0.0018571782	        0.0000000000	        0.0000000000	        0.0000000000	        0.0000000000	        0.0000000000	        0.0000000000	        0.0000000000	        0.0000000000	        0.0000000000	
        0.2003368992	      -41.8874241881	      607.3328377058	      -19.9625394183	        0.2715364012	        0.0000000000	        0.0502599525	       -0.0500841761	        0.0214782904	        0.0031322456	        0.0000000000	        0.0000000000	        0.0000000000	        0.0000000000	        0.0000000000	        0.0000000000	        0.0000000000	        0.0000000000	        0.0000000000	
        0.2114667270	      -37.6258320178	      600.0000934473	      -20.8844893948	        0.2754689588	        0.0000000000	        0.0499855868	       -0.0920400743	        0.0384677350	        0.0058851854	        0.0000000000	        0.0000000000	        0.0000000000	        0.0000000000	        0.0000000000	        0.0000000000	        0.0000000000	        0.0000000000	        0.0000000000	
